<svg width="120" height="190" viewBox="0 0 120 190" fill="none" xmlns="http://www.w3.org/2000/svg" role="img" aria-label="Brand logo">
  <defs>
    <linearGradient id="navy" x1="40" y1="6" x2="70" y2="180" gradientUnits="userSpaceOnUse">
      <stop offset="0" stop-color="#15326A"/>
      <stop offset="1" stop-color="#1E4E8C"/>
    </linearGradient>
    <linearGradient id="sky" x1="60" y1="12" x2="66" y2="180" gradientUnits="userSpaceOnUse">
      <stop offset="0" stop-color="#1AA4DF"/>
      <stop offset="1" stop-color="#35B8EE"/>
    </linearGradient>
  </defs>

  <!-- faint motion swoosh behind -->
  <path d="M22 104 C40 92 58 92 78 100" stroke="#CBD5DD" stroke-width="3" stroke-linecap="round" fill="none" opacity="0.7"/>

  <!-- navy left flame -->
  <path d="M62 6 C52 36 41 62 41 94 C41 118 47 138 54 154 C51 134 49 112 51 92 C53 62 61 36 62 6 Z" fill="url(#navy)"/>

  <!-- sky-blue ribbon (longer tail) -->
  <path d="M72 14 C65 46 58 74 60 106 C61 132 65 156 63 178 C68 150 72 122 72 96 C72 62 76 42 72 14 Z" fill="url(#sky)"/>

  <!-- navy upper curl -->
  <path d="M64 50 C81 42 95 50 92 66 C90 78 79 82 70 77 C79 76 85 67 80 60 C76 55 70 55 64 60 Z" fill="url(#navy)"/>

  <!-- navy lower curl -->
  <path d="M68 82 C86 74 98 84 94 100 C91 112 80 116 71 110 C80 108 87 99 82 92 C78 87 72 87 68 92 Z" fill="url(#navy)"/>
</svg>
