<svg width="48" height="48" viewBox="0 0 48 48" fill="none" xmlns="http://www.w3.org/2000/svg" role="img" aria-label="DRHP Intelligence">
  <!-- leaf / growth mark: deep-green base with a sky-blue rising accent -->
  <path d="M24 4C13 9 8 18 9 30c0 0 0 8 6 13 0-12 3-21 12-28-7 9-9 17-9 27 7-2 14-7 17-15 4-10 1-19-11-23Z" fill="#013E37"/>
  <path d="M24 4c12 4 15 13 11 23-1 3-3 6-5 8 2-9 0-18-6-25 4 8 4 17 1 26-1-9 0-18 4-26-2-5-5-9-10-12-.2 0 4 0 0 0Z" fill="#4F9FC0" opacity="0.92"/>
  <circle cx="24" cy="24" r="2.4" fill="#FAF8F2"/>
</svg>
